<svg width="62" height="62" viewBox="0 0 62 62" fill="none" xmlns="http://www.w3.org/2000/svg">
<path d="M31 60.5671C48.1208 60.5671 62 47.0087 62 30.2836C62 13.5584 48.1208 0 31 0C13.8792 0 0 13.5584 0 30.2836C0 47.0087 13.8792 60.5671 31 60.5671Z" fill="#FECC42"/>
<path fill-rule="evenodd" clip-rule="evenodd" d="M11.1924 37.1873C14.042 45.1833 21.865 50.9564 31.0157 50.9564C40.1662 50.9564 47.974 45.1989 50.8394 37.1864L52.5953 37.7856C49.4782 46.5021 40.9842 52.7734 31.0157 52.7734C21.0476 52.7734 12.5371 46.4868 9.43579 37.7847L11.1924 37.1873Z" fill="#030303"/>
<path fill-rule="evenodd" clip-rule="evenodd" d="M49.2494 37.9155C49.2491 37.9154 49.2489 37.9153 49.6916 37.1163C50.1343 36.3173 50.1341 36.3172 50.1339 36.3171L50.1328 36.3165L50.1319 36.3161L50.1391 36.3197C50.147 36.3237 50.1611 36.3308 50.1809 36.3403C50.2207 36.3595 50.2835 36.3887 50.3665 36.4244C50.5331 36.4958 50.7785 36.5918 51.0809 36.6834C51.6928 36.8688 52.5003 37.0249 53.3465 36.9533L53.507 38.7636C52.3432 38.862 51.2832 38.6471 50.5299 38.4189C50.1498 38.3037 49.8383 38.1823 49.6186 38.088C49.5085 38.0408 49.4208 38.0001 49.3584 37.97C49.3272 37.955 49.3022 37.9426 49.2838 37.9333L49.2613 37.9218L49.2538 37.9179L49.251 37.9164L49.2494 37.9155Z" fill="#030303"/>
<path fill-rule="evenodd" clip-rule="evenodd" d="M11.7238 36.3314C11.7236 36.3316 11.7234 36.3317 12.1661 37.1306C12.6088 37.9296 12.6085 37.9297 12.6083 37.9299L12.6066 37.9307L12.6038 37.9322L12.5964 37.9361L12.5738 37.9476C12.5555 37.9569 12.5305 37.9693 12.4993 37.9844C12.4368 38.0144 12.3491 38.0551 12.2391 38.1023C12.0194 38.1966 11.7078 38.3181 11.3277 38.4332C10.5745 38.6614 9.51447 38.8764 8.35065 38.7779L8.51115 36.9677C9.35736 37.0393 10.1649 36.8831 10.7767 36.6978C11.0792 36.6061 11.3245 36.5102 11.4911 36.4387C11.5742 36.4031 11.637 36.3738 11.6767 36.3547C11.6966 36.3451 11.7107 36.3381 11.7186 36.3341L11.7257 36.3304L11.7238 36.3314Z" fill="#030303"/>
<path d="M43.1305 21.7245C43.1305 16.2707 41.0184 11.8495 38.4131 11.8495C35.8078 11.8495 33.6957 16.2707 33.6957 21.7245C33.6957 27.1784 35.8078 31.5996 38.4131 31.5996C41.0184 31.5996 43.1305 27.1784 43.1305 21.7245Z" fill="#030303"/>
<path d="M28.3044 21.7245C28.3044 16.2707 26.1924 11.8495 23.587 11.8495C20.9817 11.8495 18.8696 16.2707 18.8696 21.7245C18.8696 27.1784 20.9817 31.5996 23.587 31.5996C26.1924 31.5996 28.3044 27.1784 28.3044 21.7245Z" fill="#030303"/>
</svg>
