<svg width="142" height="32" viewBox="0 0 142 32" fill="none" xmlns="http://www.w3.org/2000/svg">
<path d="M45.3473 28.3697C43.0958 30.5962 40.3472 31.7094 37.1015 31.7094C33.8559 31.7094 31.1073 30.5962 28.8558 28.3697C26.6336 26.114 25.5225 23.3602 25.5225 20.1084C25.5225 16.8565 26.6336 14.1174 28.8558 11.891C31.1073 9.63523 33.8559 8.50732 37.1015 8.50732C40.3472 8.50732 43.0958 9.63523 45.3473 11.891C47.5987 14.1174 48.7244 16.8565 48.7244 20.1084C48.7244 23.3602 47.5987 26.114 45.3473 28.3697ZM32.8471 24.4588C33.9874 25.6013 35.4056 26.1725 37.1015 26.1725C38.7975 26.1725 40.2156 25.6013 41.356 24.4588C42.4963 23.3162 43.0665 21.8661 43.0665 20.1084C43.0665 18.3506 42.4963 16.9005 41.356 15.758C40.2156 14.6155 38.7975 14.0442 37.1015 14.0442C35.4056 14.0442 33.9874 14.6155 32.8471 15.758C31.736 16.9005 31.1804 18.3506 31.1804 20.1084C31.1804 21.8661 31.736 23.3162 32.8471 24.4588Z" fill="#2D2D2D"/>
<path fill-rule="evenodd" clip-rule="evenodd" d="M5.41379 10.2155V3.86701L0 0V20.1084C0 23.3602 1.11112 26.114 3.33337 28.3698C5.58485 30.5962 8.33346 31.7095 11.5791 31.7095C14.8248 31.7095 17.5733 30.5962 19.8248 28.3698C22.0763 26.114 23.202 23.3602 23.202 20.1084C23.202 16.8566 22.0763 14.1175 19.8248 11.8911C17.5733 9.63529 14.8248 8.50739 11.5791 8.50739C9.27308 8.50739 7.21798 9.07675 5.41379 10.2155ZM11.5791 26.1726C9.88315 26.1726 8.46504 25.6014 7.32466 24.4588C6.21351 23.3163 5.65798 21.8662 5.65798 20.1084C5.65798 18.3507 6.21351 16.9006 7.32466 15.7581C8.46504 14.6155 9.88315 14.0443 11.5791 14.0443C13.275 14.0443 14.6932 14.6155 15.8336 15.7581C16.9739 16.9006 17.5441 18.3507 17.5441 20.1084C17.5441 21.8662 16.9739 23.3163 15.8336 24.4588C14.6932 25.6014 13.275 26.1726 11.5791 26.1726Z" fill="#2D2D2D"/>
<path d="M85.5637 28.3697C83.3124 30.5962 80.5637 31.7094 77.3181 31.7094C74.0724 31.7094 71.3237 30.5962 69.0724 28.3697C66.8503 26.114 65.7393 23.3602 65.7393 20.1084C65.7393 16.8565 66.8503 14.1174 69.0724 11.891C71.3237 9.63523 74.0724 8.50732 77.3181 8.50732C80.5637 8.50732 83.3124 9.63523 85.5637 11.891C87.8155 14.1174 88.9411 16.8565 88.9411 20.1084C88.9411 23.3602 87.8155 26.114 85.5637 28.3697ZM73.0635 24.4588C74.2042 25.6013 75.6221 26.1725 77.3181 26.1725C79.0141 26.1725 80.4324 25.6013 81.5727 24.4588C82.7129 23.3162 83.2833 21.8661 83.2833 20.1084C83.2833 18.3506 82.7129 16.9005 81.5727 15.758C80.4324 14.6155 79.0141 14.0442 77.3181 14.0442C75.6221 14.0442 74.2042 14.6155 73.0635 15.758C71.9524 16.9005 71.3971 18.3506 71.3971 20.1084C71.3971 21.8661 71.9524 23.3162 73.0635 24.4588Z" fill="#2D2D2D"/>
<path d="M55.1506 11.891C52.9284 14.1174 51.8174 16.8565 51.8174 20.1084V31.7094H57.4753V20.1084C57.4753 18.3506 58.031 16.9005 59.1421 15.758C60.2823 14.6155 62.4739 14.0442 64.1699 14.0442V8.50732C59.9383 8.50732 57.4023 9.63523 55.1506 11.891Z" fill="#2D2D2D"/>
<path d="M92.9416 31.5293C94.631 31.5293 96.0005 30.1598 96.0005 28.4704C96.0005 26.7811 94.631 25.4116 92.9416 25.4116C91.2523 25.4116 89.8828 26.7811 89.8828 28.4704C89.8828 30.1598 91.2523 31.5293 92.9416 31.5293Z" fill="#FECC42"/>
<path d="M104.191 9.05079H105.688V18.3714H104.555L104.366 17.5968C103.665 18.2233 102.806 18.5365 101.79 18.5365C100.693 18.5365 99.7848 18.1979 99.0655 17.5206C98.3552 16.8349 98 15.9757 98 14.9429C98 13.9101 98.3552 13.055 99.0655 12.3778C99.7848 11.6921 100.693 11.3492 101.79 11.3492C102.716 11.3492 103.516 11.6159 104.191 12.1492V9.05079ZM100.212 16.5556C100.662 16.9788 101.228 17.1905 101.911 17.1905C102.595 17.1905 103.161 16.9788 103.611 16.5556C104.069 16.1238 104.299 15.5862 104.299 14.9429C104.299 14.5196 104.195 14.1386 103.988 13.8C103.782 13.4529 103.494 13.182 103.125 12.9873C102.766 12.7926 102.361 12.6952 101.911 12.6952C101.462 12.6952 101.053 12.7926 100.684 12.9873C100.324 13.182 100.041 13.4529 99.8343 13.8C99.6365 14.1386 99.5376 14.5196 99.5376 14.9429C99.5376 15.5862 99.7624 16.1238 100.212 16.5556Z" fill="#2D2D2D" fill-opacity="0.54"/>
<path d="M107.717 10.4476V9H109.268V10.4476H107.717ZM107.744 18.3714V11.5143H109.241V18.3714H107.744Z" fill="#2D2D2D" fill-opacity="0.54"/>
<path d="M117.247 11.5143H118.231V17.4698C118.231 18.1979 118.083 18.8243 117.786 19.3492C117.499 19.8825 117.081 20.2889 116.532 20.5683C115.984 20.8561 115.336 21 114.59 21C113.664 21 112.886 20.7841 112.257 20.3524C111.627 19.9291 111.218 19.3365 111.029 18.5746H112.526C112.661 18.9471 112.917 19.2349 113.295 19.4381C113.682 19.6413 114.109 19.7429 114.576 19.7429C115.224 19.7429 115.75 19.5566 116.154 19.1841C116.559 18.8116 116.761 18.3037 116.761 17.6603V17.3556C116.087 17.8974 115.282 18.1683 114.347 18.1683C113.34 18.1683 112.486 17.8423 111.785 17.1905C111.092 16.5302 110.746 15.7217 110.746 14.7651C110.746 13.8085 111.092 13 111.785 12.3397C112.486 11.6794 113.34 11.3492 114.347 11.3492C115.417 11.3492 116.303 11.7005 117.004 12.4032L117.247 11.5143ZM114.522 16.8603C114.837 16.8603 115.134 16.8095 115.413 16.7079C115.691 16.5979 115.93 16.454 116.127 16.2762C116.325 16.0899 116.478 15.8656 116.586 15.6032C116.703 15.3407 116.761 15.0614 116.761 14.7651C116.761 14.1556 116.55 13.6519 116.127 13.254C115.705 12.8561 115.17 12.6571 114.522 12.6571C113.875 12.6571 113.336 12.8603 112.904 13.2667C112.481 13.6646 112.27 14.164 112.27 14.7651C112.27 15.3661 112.481 15.8656 112.904 16.2635C113.336 16.6614 113.875 16.8603 114.522 16.8603Z" fill="#2D2D2D" fill-opacity="0.54"/>
<path d="M120.253 10.4476V9H121.804V10.4476H120.253ZM120.28 18.3714V11.5143H121.777V18.3714H120.28Z" fill="#2D2D2D" fill-opacity="0.54"/>
<path d="M127.071 17.0889H127.894V18.3714H126.788C126.257 18.3714 125.799 18.2741 125.412 18.0794C125.026 17.8847 124.729 17.6053 124.522 17.2413C124.315 16.8688 124.212 16.4328 124.212 15.9333V12.7206H122.904V12.454L125.439 9.91429H125.695V11.5143H127.853V12.7206H125.709V15.819C125.709 16.2254 125.826 16.5386 126.06 16.7587C126.293 16.9788 126.631 17.0889 127.071 17.0889Z" fill="#2D2D2D" fill-opacity="0.54"/>
<path d="M135.289 11.5143H136.449V18.3714H135.235L135.087 17.5333C134.385 18.2021 133.509 18.5365 132.457 18.5365C131.369 18.5365 130.461 18.1936 129.732 17.5079C129.013 16.8222 128.653 15.9672 128.653 14.9429C128.653 13.9101 129.013 13.055 129.732 12.3778C130.461 11.6921 131.369 11.3492 132.457 11.3492C133.527 11.3492 134.412 11.6878 135.114 12.3651L135.289 11.5143ZM130.852 16.5556C131.31 16.9788 131.881 17.1905 132.565 17.1905C133.257 17.1905 133.823 16.9788 134.264 16.5556C134.714 16.1238 134.938 15.5862 134.938 14.9429C134.938 14.291 134.714 13.7534 134.264 13.3302C133.823 12.9069 133.257 12.6952 132.565 12.6952C132.115 12.6952 131.706 12.7926 131.337 12.9873C130.978 13.182 130.694 13.4529 130.488 13.8C130.281 14.1386 130.177 14.5196 130.177 14.9429C130.177 15.5862 130.402 16.1238 130.852 16.5556Z" fill="#2D2D2D" fill-opacity="0.54"/>
<path d="M138.503 18.3714V9.05079H140V18.3714H138.503Z" fill="#2D2D2D" fill-opacity="0.54"/>
</svg>
